inDegrees=yes
name=ik_S42_A08_T01
DataType=double
version=3
OpenSimVersion=4.3-2021-08-27-4bc7ad9
endheader
time	pelvis_tilt	pelvis_list	pelvis_rotation	pelvis_tx	pelvis_ty	pelvis_tz	hip_flexion_r	hip_adduction_r	hip_rotation_r	knee_angle_r	knee_angle_r_beta	ankle_angle_r	subtalar_angle_r	mtp_angle_r	hip_flexion_l	hip_adduction_l	hip_rotation_l	knee_angle_l	knee_angle_l_beta	ankle_angle_l	subtalar_angle_l	mtp_angle_l	lumbar_extension	lumbar_bending	lumbar_rotation	arm_flex_r	arm_add_r	arm_rot_r	elbow_flex_r	pro_sup_r	wrist_flex_r	wrist_dev_r	arm_flex_l	arm_add_l	arm_rot_l	elbow_flex_l	pro_sup_l	wrist_flex_l	wrist_dev_l
13.11999999999981	-8.115346406437673	-0.8053889795051823	32.70168650793449	0	0.9399999999999999	0	42.26197044917927	-10.49584896846304	-10.37535496776348	55.34915938444429	0.9660250694696708	0	0	0	42.26197044917927	-10.49584896846304	-10.37535496776348	55.34915938444429	0.9660250694696708	0	0	0	-6.275384318612195	0.1719390134631999	-6.703354051515097	34.93839919789428	-5.494645934384953	9.569396686473745	54.13480324802813	123.0643553495954	0	0	94.28401001669228	-17.5340805677239	12.01104606265226	92.88625775501588	74.79612072319533	0	0
13.13999999999981	-8.119238346517607	-0.8150461867493037	32.67444538396884	0	0.9399999999999999	0	42.26306726203653	-10.49515762658668	-10.37501903028164	55.34906568900309	0.9660234341757277	0	0	0	42.26306726203653	-10.49515762658668	-10.37501903028164	55.34906568900309	0.9660234341757277	0	0	0	-6.283941064020465	0.1632948251553709	-6.662604595687699	34.91345876611023	-5.482813441910763	9.529381657274852	54.18121030870079	123.0759895795815	0	0	93.95798999314496	-17.43524721306519	12.63567509359587	92.34059514788963	74.02606811193893	0	0
13.15999999999981	-8.108304792289571	-0.8259888638618549	32.61817485061587	0	0.9399999999999999	0	42.26391984339504	-10.49462971472044	-10.37476091789061	55.34899167917427	0.966022142460536	0	0	0	42.26391984339504	-10.49462971472044	-10.37476091789061	55.34899167917427	0.966022142460536	0	0	0	-6.279853551774158	0.1396254721346801	-6.575016838377009	34.85818256176585	-5.466809229333835	9.457121837789112	54.2063877282944	123.1128655864745	0	0	93.90517513710066	-17.30094250532567	12.77467031088085	91.42616362714523	72.96719301496044	0	0
13.17999999999981	-8.099155893160344	-0.8358696092668029	32.62317052285133	0	0.9399999999999999	0	42.26463572385399	-10.49418121439725	-10.37454248182334	55.34893024487282	0.966021070229702	0	0	0	42.26463572385399	-10.49418121439725	-10.37454248182334	55.34893024487282	0.966021070229702	0	0	0	-6.278116577599212	0.1273265443798761	-6.571586280767098	34.84873671104729	-5.448285371012609	9.435443664030041	54.22114075083599	123.105078421211	0	0	93.5865101821535	-17.37778917461786	13.38779830772391	91.15756644384156	72.39017672151761	0	0
13.19999999999981	-8.100417412453387	-0.8451675795037147	32.5894569136896	0	0.9399999999999999	0	42.26577766275798	-10.49346465028198	-10.37419362344933	55.34883246824846	0.9660193637056754	0	0	0	42.26577766275798	-10.49346465028198	-10.37419362344933	55.34883246824846	0.9660193637056754	0	0	0	-6.284441635770851	0.1190565386933817	-6.542196154352611	34.84640569740612	-5.426172978026796	9.353194311359315	54.23540807517074	123.1869307700066	0	0	93.2791052597707	-17.45235286183262	13.92050240580733	90.36412693326417	71.10982365597043	0	0
13.21999999999981	-8.101777224618386	-0.8535354956444429	32.63916521358949	0	0.9399999999999999	0	42.26706332522974	-10.49265711594927	-10.37380053317672	55.34872258675237	0.9660174459117816	0	0	0	42.26706332522974	-10.49265711594927	-10.37380053317672	55.34872258675237	0.9660174459117816	0	0	0	-6.291713705902174	0.119825212999673	-6.586113291991324	34.86468587966876	-5.39934242152462	9.336298804430756	54.24283190687423	123.1685716985714	0	0	92.61241652677039	-17.7803833869233	14.18552035208152	89.85360006641211	69.78057076893073	0	0
13.23999999999981	-8.093635058294572	-0.8471078134734257	32.65726303513099	0	0.9399999999999999	0	42.26803760877461	-10.49204967242148	-10.37350405531	55.34863879743914	0.9660159835123877	0	0	0	42.26803760877461	-10.49204967242148	-10.37350405531	55.34863879743914	0.9660159835123877	0	0	0	-6.282407387165992	0.1251822137703803	-6.609055886358349	34.84006866767766	-5.38067415195124	9.3727816631006	54.23926153654745	123.1385617246854	0	0	92.10758390665602	-17.92171196310882	14.17768790246139	88.98958284265133	68.38117825777536	0	0
13.25999999999981	-8.098855897486599	-0.8541018486744307	32.52728601238393	0	0.9399999999999999	0	42.26908633253547	-10.49140043919719	-10.37318637014243	55.34854807142489	0.9660144000447218	0	0	0	42.26908633253547	-10.49140043919719	-10.37318637014243	55.34854807142489	0.9660144000447218	0	0	0	-6.288686330923087	0.1099910040552042	-6.484668744240585	34.83721943146237	-5.376344083315592	9.390023245968539	54.28698235000856	123.1207540147314	0	0	91.98692860705202	-17.69919201768099	14.39903495972553	86.96092462357663	66.35034412124439	0	0
13.27999999999981	-8.099326373574	-0.8666058114509227	32.59412779851429	0	0.9399999999999999	0	42.26989405382454	-10.49089620886332	-10.37294029888361	55.34847879254885	0.966013190900233	0	0	0	42.26989405382454	-10.49089620886332	-10.37294029888361	55.34847879254885	0.966013190900233	0	0	0	-6.297046303054623	0.1066332326249228	-6.535301123226388	34.82059020811342	-5.365798365388438	9.386680718091066	54.29883793279192	123.0861146118472	0	0	90.80871646398224	-17.96884407404939	14.13363095100262	86.43235566247245	65.49145479699136	0	0
13.29999999999981	-8.110783733557213	-0.8717867396517254	32.60954727823775	0	0.9399999999999999	0	42.27068445449363	-10.49040383256479	-10.37269981282968	55.34841090247337	0.9660120059948863	0	0	0	42.27068445449363	-10.49040383256479	-10.37269981282968	55.34841090247337	0.9660120059948863	0	0	0	-6.310122018259369	0.1103769966487395	-6.539516940797744	34.81113994946065	-5.35898072080428	9.396519340858829	54.35469543835704	123.0655770728837	0	0	89.99215642744481	-17.965677504202	14.00081146278502	85.62203375482443	64.71171166027993	0	0
13.3199999999998	-8.118819821555732	-0.8889978684890981	32.60794081458613	0	0.9399999999999999	0	42.27153837617156	-10.48987156730776	-10.37243986641159	55.34833764040909	0.966010727330648	0	0	0	42.27153837617156	-10.48987156730776	-10.37243986641159	55.34833764040909	0.966010727330648	0	0	0	-6.326364340385648	0.1006992233286798	-6.529303630855087	34.80251891182999	-5.338848974691171	9.397921959413107	54.41866298516855	123.0142568521812	0	0	89.1400966792921	-17.88129929936267	13.90728394607826	84.7642048695251	63.97918205721773	0	0
13.3399999999998	-8.156234924345288	-0.9317919455284228	32.60241254660932	0	0.9399999999999999	0	42.2724178535611	-10.48932307344461	-10.37217200765794	55.34826227494644	0.9660094119551824	0	0	0	42.2724178535611	-10.48932307344461	-10.37217200765794	55.34826227494644	0.9660094119551824	0	0	0	-6.381076664391364	0.0853820475321489	-6.520411175228606	34.86324455006021	-5.328078886520349	9.415599924014129	54.49609311692744	122.964041286388	0	0	88.29930331844076	-17.77222149053036	13.807862076478	83.92153068372326	63.33544533555202	0	0
13.3599999999998	-8.163009935964411	-0.9516167164666972	32.54230238939137	0	0.9399999999999999	0	42.27368091539309	-10.48854319779949	-10.37178981244271	55.34815308033672	0.9660075061497173	0	0	0	42.27368091539309	-10.48854319779949	-10.37178981244271	55.34815308033672	0.9660075061497173	0	0	0	-6.39675669123026	0.06685701485942168	-6.45525341205397	34.89783225049032	-5.311435471796448	9.395576465902886	54.53759318054814	122.9217433479995	0	0	88.25587537949761	-17.58048083979939	13.85387521070096	82.4095821492479	62.36228957288611	0	0
13.3799999999998	-8.183571755220813	-0.9839204067940927	32.58087431132084	0	0.9399999999999999	0	42.27443842845246	-10.48807204249149	-10.37155944208104	55.34808809778274	0.9660063719901939	0	0	0	42.27443842845246	-10.48807204249149	-10.37155944208104	55.34808809778274	0.9660063719901939	0	0	0	-6.431286003476348	0.04821197812168651	-6.426403232857966	34.91507679458332	-5.312581668489572	9.33057621949534	54.55153744376225	122.898564169233	0	0	87.37079722934094	-17.42649828515689	13.65848165678024	82.19658357848151	62.30991393088134	0	0
